[Header]
FileType HTR
DataType HTRS
FileVersion 1
NumSegments 22
NumFrames 4
DataFrameRate 24
EulerRotationOrder ZYX
CalibrationUnits mm
RotationUnits Degrees
GlobalAxisofGravity Y
BoneLengthAxis Y
ScaleFactor 1.0
[SegmentNames&Hierarchy]
reference	GLOBAL
Hips	reference
Spine	Hips
Spine1	Spine
Neck	Spine1
Head	Neck
LeftShoulder	Spine1
LeftArm	LeftShoulder
LeftForeArm	LeftArm
LeftHand	LeftForeArm
RightShoulder	Spine1
RightArm	RightShoulder
RightForeArm	RightArm
RightHand	RightForeArm
LeftUpLeg	Hips
LeftLeg	LeftUpLeg
LeftFoot	LeftLeg
LeftToeBase	LeftFoot
RightUpLeg	Hips
RightLeg	RightUpLeg
RightFoot	RightLeg
RightToeBase	RightFoot
[BasePosition]
reference	0	0	0	0	0	0	1
Hips	0	0	0	0	0	0	1
Spine	0	0	0	-0	-90	0	1
Spine1	0	0	0	0	0	0	1
Neck	0	0	0	82.64767223	-82.64767223	-90	1
Head	0	0	0	-0	-90	0	1
LeftShoulder	0	0	0	0	0	0	1
LeftArm	0	0	0	0	0	0	1
LeftForeArm	0	0	0	0	0	0	1
LeftHand	0	0	0	0	0	0	1
RightShoulder	0	0	0	0	-0	180	1
RightArm	0	0	0	0	-0	180	1
RightForeArm	0	0	0	0	-0	180	1
RightHand	0	0	0	0	-0	180	1
LeftUpLeg	0	0	0	-0	90	0	1
LeftLeg	0	0	0	-0	90	0	1
LeftFoot	0	0	0	-23.42853957	23.42853957	-90	1
LeftToeBase	0	0	0	0	-0	-90	1
RightUpLeg	0	0	0	-0	90	0	1
RightLeg	0	0	0	-0	90	0	1
RightFoot	0	0	0	-23.42853957	23.42853957	-90	1
RightToeBase	0	0	0	0	-0	-90	1
[reference]
1	0	0	0	0	-0	0	1.0
2	0	0	0	0	-0	0	1.0
3	0	0	0	0	-0	0	1.0
4	0	0	0	0	-0	0	1.0
[Hips]
1	5.486959934	-0.6783699989	8.091539383	-1.863511562	-2.115473509	-105.3950653	1.0
2	5.47890234	-0.6713186502	8.091539383	-2.117311239	-1.93749404	-105.2857361	1.0
3	5.420019627	-0.634473443	8.091539383	-2.338479042	-1.613942623	-104.6644745	1.0
4	5.371675491	-0.5941117406	8.091539383	-2.403472185	-1.566407084	-103.8019791	1.0
[Spine]
1	0	0	0.7457100153	79.27157593	92.42824554	87.02275848	1.0
2	0	0	0.7457100153	84.86839294	92.44824982	92.34342957	1.0
3	0	0	0.7457100153	92.44309998	92.55175781	99.48786926	1.0
4	0	0	0.7457100153	93.44791412	92.68002319	100.3318253	1.0
[Spine1]
1	0	0	2.140589952	8.370659828	2.853288174	-0.5896049142	1.0
2	0	0	2.140589952	8.478570938	2.910305023	-0.5940662622	1.0
3	0	0	2.140589952	8.617965698	2.874282837	-0.6241657138	1.0
4	0	0	2.140589952	8.899297714	2.928627014	-0.6536082029	1.0
[Neck]
1	0	0	2.32246995	75.57274628	79.52071381	71.68350983	1.0
2	0	0	2.32246995	73.93543243	79.26255798	70.70301819	1.0
3	0	0	2.32246995	75.37733459	79.62100983	72.32411194	1.0
4	0	0	2.32246995	76.39739227	79.83154297	73.69908142	1.0
[Head]
1	0	-0.1818799973	1.409579992	-36.34703064	97.48524475	-24.30123901	1.0
2	0	-0.1818799973	1.409579992	-34.36205673	98.51416779	-23.29972076	1.0
3	0	-0.1818799973	1.409579992	-32.9233017	98.301651	-21.6450901	1.0
4	0	-0.1818799973	1.409579992	-32.0463829	98.14107513	-20.88817406	1.0
[LeftShoulder]
1	0.3668199778	0.02662999928	1.946700096	-10.42541122	-3.368881226	-7.344191074	1.0
2	0.3668199778	0.02662999928	1.946700096	-10.44626045	-3.496135235	-7.030325413	1.0
3	0.3668199778	0.02662999928	1.946700096	-10.74654007	-3.407757759	-6.701083183	1.0
4	0.3668199778	0.02662999928	1.946700096	-10.90817833	-3.36720252	-6.708033085	1.0
[LeftArm]
1	1.140689969	0	0	81.42980194	76.69992828	45.62733841	1.0
2	1.140689969	0	0	80.84914398	77.06271362	44.80228806	1.0
3	1.140689969	0	0	81.07315826	77.32240295	44.1385498	1.0
4	1.140689969	0	0	81.25744629	77.38115692	43.81114197	1.0
[LeftForeArm]
1	2.749800205	0	0	-12.66254044	7.396593571	-13.90561008	1.0
2	2.749800205	0	0	-12.56345177	7.333108902	-14.08535004	1.0
3	2.749800205	0	0	-12.7727375	6.881149292	-14.77280235	1.0
4	2.749800205	0	0	-12.61510849	6.047215462	-15.60921001	1.0
[LeftHand]
1	2.295179844	0	0	-12.60832691	12.22286129	-7.923203945	1.0
2	2.295179844	0	0	-12.49114609	11.97591782	-7.958423615	1.0
3	2.295179844	0	0	-12.64070702	10.31570053	-8.413686752	1.0
4	2.295179844	0	0	-12.54213524	9.846654892	-8.796154022	1.0
[RightShoulder]
1	-0.3601199985	0.02662999928	1.946700096	-7.490381718	2.415301085	-174.3817749	1.0
2	-0.3601199985	0.02662999928	1.946700096	-7.722424507	2.564824581	-174.3508453	1.0
3	-0.3601199985	0.02662999928	1.946700096	-7.998259068	2.590667963	-174.2286987	1.0
4	-0.3601199985	0.02662999928	1.946700096	-8.089316368	2.595881939	-174.2371216	1.0
[RightArm]
1	-1.140689969	0	0	-109.8087387	-98.02295685	-27.57920837	1.0
2	-1.140689969	0	0	-108.5549774	-97.84999084	-28.6223011	1.0
3	-1.140689969	0	0	-107.4932175	-97.67330933	-28.54517174	1.0
4	-1.140689969	0	0	-107.3012085	-97.33374023	-28.33384895	1.0
[RightForeArm]
1	-2.749800205	0	0	2.049011469	-3.188537121	-161.4044189	1.0
2	-2.749800205	0	0	2.390594006	-3.314342022	-161.1329956	1.0
3	-2.749800205	0	0	2.568932533	-3.406981468	-160.9282074	1.0
4	-2.749800205	0	0	2.533644676	-3.306768417	-161.0128479	1.0
[RightHand]
1	-2.295179844	0	0	1.865448594	-7.701214314	-169.5371857	1.0
2	-2.295179844	0	0	2.252355576	-7.589237213	-169.6323242	1.0
3	-2.295179844	0	0	2.506183624	-7.080282688	-169.7510376	1.0
4	-2.295179844	0	0	2.479507446	-6.809818268	-169.8111267	1.0
[LeftUpLeg]
1	0.9094099998	0	0	35.28607941	-88.67225647	-35.88713455	1.0
2	0.9094099998	0	0	64.88732147	-88.36588287	-67.33003235	1.0
3	0.9094099998	0	0	93.70962524	-86.47479248	-101.0541229	1.0
4	0.9094099998	0	0	100.2468262	-84.60192108	-112.2128296	1.0
[LeftLeg]
1	0	0	-4.498080254	31.11361504	-87.69290924	-9.366832733	1.0
2	0	0	-4.498080254	20.56881332	-87.2027359	6.070206642	1.0
3	0	0	-4.498080254	23.32636642	-84.04241943	14.49979401	1.0
4	0	0	-4.498080254	29.06665802	-80.864151	18.40131187	1.0
[LeftFoot]
1	0	0	-3.729400158	-63.28300095	-12.92870331	105.8273697	1.0
2	0	0	-3.729400158	-63.56211853	-11.84399796	105.4135361	1.0
3	0	0	-3.729400158	-61.82553864	-8.971901894	106.7685165	1.0
4	0	0	-3.729400158	-58.09026718	-6.869327545	108.8478088	1.0
[LeftToeBase]
1	0	-1.364109993	-0.5911099911	-9.999999975e-007	0	0	1.0
2	0	-1.364109993	-0.5911099911	-9.999999975e-007	0	0	1.0
3	0	-1.364109993	-0.5911099911	-9.999999975e-007	0	0	1.0
4	0	-1.364109993	-0.5911099911	-9.999999975e-007	0	0	1.0
[RightUpLeg]
1	-0.9094099998	0	0	94.9395752	-73.88208771	-83.41143799	1.0
2	-0.9094099998	0	0	95.72793579	-73.91796875	-83.73654938	1.0
3	-0.9094099998	0	0	97.4901886	-73.30089569	-85.01541138	1.0
4	-0.9094099998	0	0	98.44459534	-72.78185272	-85.61276245	1.0
[RightLeg]
1	0	0	-4.498080254	-78.9657135	-97.24731445	82.06591797	1.0
2	0	0	-4.498080254	-78.04882813	-97.26895905	81.4203949	1.0
3	0	0	-4.498080254	-78.41609192	-96.86761475	82.61575317	1.0
4	0	0	-4.498080254	-79.64126587	-96.98100281	84.31266022	1.0
[RightFoot]
1	0	0	-3.729400158	-52.99795532	-27.39324951	83.72554779	1.0
2	0	0	-3.729400158	-53.65578461	-27.39426613	83.71863556	1.0
3	0	0	-3.729400158	-54.82518005	-27.67998695	83.63011169	1.0
4	0	0	-3.729400158	-55.42713928	-28.10279846	83.80354309	1.0
[RightToeBase]
1	0	-1.364109993	-0.5911099911	3.000000106e-006	9.999999975e-007	9.999999975e-007	1.0
2	0	-1.364109993	-0.5911099911	3.000000106e-006	9.999999975e-007	9.999999975e-007	1.0
3	0	-1.364109993	-0.5911099911	3.000000106e-006	9.999999975e-007	9.999999975e-007	1.0
4	0	-1.364109993	-0.5911099911	3.000000106e-006	9.999999975e-007	9.999999975e-007	1.0
[EndOfFile]
